PathFileType	4	(X/Y/Z)	./resultDataOpenSim/trcMotMarkerGrf/sub09/qtm-13-06.trc
DataRate	CameraRate	NumFrames	NumMarkers	Units	OrigDataRate	OrigDataStartFrame	OrigNumFrames
250.000000	250.000000	7	24	m	250.000000	120	478
Frame#	Time	L.Toe.Tip			R.Toe.Tip			L.Ankle.Lat			R.Ankle.Lat			L.Ankle.Med			R.Ankle.Med			L.Heel			R.Heel			L.Knee.Lat			R.Knee.Lat			L.Knee.Med			R.Knee.Med			L.Thigh.Upper			R.Thigh.Upper			L.ASIS			R.ASIS			V.Sacral			L.Acromium			R.Acromium			C7			L.Elbow			R.Elbow			L.Wrist.Lat			R.Wrist.Lat
		X1	Y1	Z1	X2	Y2	Z2	X3	Y3	Z3	X4	Y4	Z4	X5	Y5	Z5	X6	Y6	Z6	X7	Y7	Z7	X8	Y8	Z8	X9	Y9	Z9	X10	Y10	Z10	X11	Y11	Z11	X12	Y12	Z12	X13	Y13	Z13	X14	Y14	Z14	X15	Y15	Z15	X16	Y16	Z16	X17	Y17	Z17	X18	Y18	Z18	X19	Y19	Z19	X20	Y20	Z20	X21	Y21	Z21	X22	Y22	Z22	X23	Y23	Z23	X24	Y24	Z24

120	0.476	-0.25384375	0.06777571	-0.021546642	-0.6275443	0.038326185	0.10997159	-0.4025701	0.093407711	-0.0522566	-0.77616038	0.059814641	0.12641234	-0.37883767	0.11170976	0.04278556	-0.75521166	0.094160517	0.035620476	-0.46791391	0.049506245	-0.0014270257	-0.84027307	0.040520736	0.070288435	-0.37627303	0.51145837	-0.084640509	-0.63605716	0.49720756	0.18954257	-0.37834159	0.50665106	0.04060553	-0.64421554	0.48724543	0.061565647	-0.55337119	0.89259469	-0.12833786	-0.59720175	0.90162841	0.24283842	-0.48536933	0.97800537	-0.062743951	-0.48561899	0.97927441	0.17661968	-0.64949563	1.0382004	0.052021646	-0.4815388	1.4305914	-0.11571926	-0.4898207	1.4412405	0.21392626	-0.55164407	1.4869041	0.0508264	-0.64772667	1.1024138	-0.15747188	-0.6023574	1.0894694	0.31696283	-0.55046972	0.8610274	-0.1996267	-0.37779393	0.92091821	0.29967457
121	0.48	-0.2338708	0.069924371	-0.020890737	-0.62756836	0.038320304	0.11002333	-0.38328272	0.091762862	-0.051914542	-0.77625084	0.059966307	0.12592984	-0.36015636	0.11082682	0.043091816	-0.75480503	0.094342496	0.035263866	-0.4474469	0.046388048	-0.0010671097	-0.84016037	0.040732572	0.06959127	-0.36891791	0.51038715	-0.085100045	-0.63456366	0.4971813	0.18964597	-0.37103351	0.50563403	0.040058262	-0.64250569	0.48704049	0.061630304	-0.54708307	0.89132521	-0.12836619	-0.59141421	0.90083639	0.2428367	-0.47877732	0.97674827	-0.062644507	-0.47917517	0.97813414	0.17676582	-0.64286591	1.0370816	0.051963937	-0.47542397	1.4294882	-0.11592118	-0.48355659	1.4402219	0.2137239	-0.54561849	1.4858092	0.0507624	-0.64236311	1.1017804	-0.15751016	-0.59509755	1.0881379	0.31727594	-0.54637037	0.86003519	-0.20042461	-0.36929203	0.92129775	0.29904049
122	0.484	-0.2141346	0.072340761	-0.02012984	-0.62758864	0.038313463	0.11007782	-0.36412396	0.0903808	-0.051557986	-0.7763065	0.060161039	0.12539724	-0.34167906	0.11018395	0.043380364	-0.75433695	0.094581105	0.034861457	-0.42706055	0.043554424	-0.00061558322	-0.8400221	0.040981411	0.068784548	-0.36160567	0.5091988	-0.085629962	-0.6331457	0.49708154	0.18969419	-0.36367706	0.50454665	0.039556407	-0.64071195	0.48684022	0.061660771	-0.54069798	0.88997083	-0.12840493	-0.58565203	0.90001699	0.24284601	-0.47216953	0.97541044	-0.06253214	-0.47270043	0.97692573	0.17691769	-0.63630335	1.0359226	0.051695499	-0.46929906	1.428302	-0.11612428	-0.47730418	1.4391225	0.21351717	-0.53955804	1.4846593	0.050661179	-0.63694826	1.1010545	-0.15758394	-0.58772122	1.0866847	0.31750796	-0.54232125	0.85895304	-0.20127269	-0.36082656	0.92159128	0.29841704
123	0.488	-0.1946685	0.074993026	-0.019259102	-0.62760182	0.038296086	0.11013209	-0.34513018	0.089249437	-0.051175711	-0.77629089	0.060443969	0.12482967	-0.32340456	0.10984723	0.043708549	-0.75380688	0.094875644	0.034419637	-0.40679183	0.041012141	-8.916334e-05	-0.83985212	0.041266763	0.067867932	-0.35435594	0.5079295	-0.086200265	-0.63170055	0.49690876	0.18975271	-0.3562257	0.50339754	0.039166486	-0.6388491	0.48665713	0.061621779	-0.53420391	0.88853854	-0.1284221	-0.57988358	0.89914909	0.24284703	-0.46555092	0.97399487	-0.062406065	-0.46620042	0.97565459	0.17707164	-0.62998087	1.034796	0.050875491	-0.46317344	1.4270391	-0.11633131	-0.47106119	1.4379417	0.21330526	-0.53337762	1.4834207	0.05045301	-0.63147155	1.1002352	-0.15770381	-0.58029092	1.0851321	0.31769271	-0.53823588	0.85779342	-0.20215087	-0.35240671	0.92179663	0.29781435
124	0.492	-0.17550035	0.077829164	-0.018302692	-0.62760556	0.038262816	0.11018484	-0.32635555	0.088355558	-0.050782841	-0.77619512	0.060848669	0.12424011	-0.30530574	0.10984477	0.044108951	-0.7532234	0.095198042	0.03394649	-0.3867065	0.038757077	0.00044169086	-0.8396494	0.041575982	0.066860817	-0.34715177	0.50660389	-0.086758017	-0.63013145	0.49668564	0.18994933	-0.34873664	0.50214243	0.038895936	-0.63691412	0.48646539	0.06157081	-0.52763348	0.88702098	-0.12840449	-0.57407881	0.89820334	0.24282404	-0.45893132	0.97250214	-0.062268846	-0.45968646	0.97432085	0.1772285	-0.62397676	1.0337567	0.049346289	-0.45704734	1.4257038	-0.11654532	-0.46482964	1.4366826	0.21309574	-0.52709244	1.4820625	0.050155392	-0.62594211	1.099325	-0.15785675	-0.57291417	1.0835168	0.31788703	-0.534083	0.85655399	-0.20307751	-0.3440472	0.92191216	0.29723582
125	0.496	-0.1566624	0.080786847	-0.017308212	-0.62760462	0.038220837	0.11023546	-0.30786296	0.087691669	-0.050418432	-0.77605652	0.061353011	0.12362655	-0.28737927	0.11014647	0.044541146	-0.75260387	0.095512161	0.033458002	-0.36689316	0.036794681	0.0009006715	-0.83942073	0.041901499	0.065794566	-0.33991101	0.5052417	-0.087257251	-0.62842046	0.49649841	0.19041757	-0.34135251	0.50071664	0.038672131	-0.63487964	0.48624902	0.061583971	-0.52104253	0.88540994	-0.12836459	-0.5682436	0.89717333	0.24277945	-0.4523183	0.97093257	-0.062124794	-0.45316587	0.97291459	0.1773903	-0.61812152	1.0327073	0.04755153	-0.45091483	1.4242964	-0.1167677	-0.45860572	1.4353481	0.21289354	-0.52081101	1.4805899	0.049867059	-0.62037325	1.0983242	-0.1580276	-0.56564393	1.081855	0.31811717	-0.52987372	0.85524862	-0.20405007	-0.33575621	0.92193492	0.29667693
126	0.5	-0.13819321	0.083804722	-0.016329743	-0.62760926	0.03818302	0.11028245	-0.28969901	0.087257835	-0.050122415	-0.77594866	0.061864393	0.12298781	-0.26969085	0.11066776	0.044891193	-0.75196663	0.095802283	0.032973746	-0.34742425	0.03513825	0.0012524098	-0.83917887	0.042253287	0.064707148	-0.33254027	0.50386306	-0.087673267	-0.626651	0.49647708	0.19126665	-0.3341639	0.49909071	0.038421541	-0.6327229	0.48602005	0.061674459	-0.51446773	0.88370792	-0.12831745	-0.56239776	0.89607089	0.24271775	-0.44571295	0.9692905	-0.061981152	-0.44664049	0.97142704	0.17755066	-0.61212661	1.0314389	0.046247319	-0.44477322	1.4228141	-0.11699602	-0.45238693	1.4339396	0.21269726	-0.51459215	1.4790344	0.04964765	-0.6147713	1.0972308	-0.15821105	-0.55846526	1.0801384	0.31837244	-0.52559093	0.85389847	-0.20501665	-0.32752711	0.9218645	0.29613027
